<?xml version="1.0" encoding="UTF-8" standalone="no" ?>
<!DOCTYPE svg PUBLIC "-//W3C//DTD SVG 1.1//EN" "http://www.w3.org/Graphics/SVG/1.1/DTD/svg11.dtd">
<svg xmlns="http://www.w3.org/2000/svg" xmlns:xlink="http://www.w3.org/1999/xlink" version="1.1" width="1080" height="1080" viewBox="0 0 1080 1080" xml:space="preserve">
<desc>Created with Fabric.js 5.2.4</desc>
<defs>
</defs>
<g transform="matrix(1 0 0 1 540 540)" id="51f0c850-3183-4a2d-b8ee-d2f682f96bec"  >
<rect style="stroke: none; stroke-width: 1; stroke-dasharray: none; stroke-linecap: butt; stroke-dashoffset: 0; stroke-linejoin: miter; stroke-miterlimit: 4; fill: rgb(255,255,255); fill-rule: nonzero; opacity: 1; visibility: hidden;" vector-effect="non-scaling-stroke"  x="-540" y="-540" rx="0" ry="0" width="1080" height="1080" />
</g>
<g transform="matrix(1 0 0 1 540 540)" id="b4ce5ed7-25f3-496a-b668-73536f6d03dd"  >
</g>
<g transform="matrix(0.72 0 0 0.72 540 540)"  >
<g style=""   >
		<g transform="matrix(1 0 0 1 0 0)"  >
<rect style="stroke: none; stroke-width: 1; stroke-dasharray: none; stroke-linecap: butt; stroke-dashoffset: 0; stroke-linejoin: miter; stroke-miterlimit: 4; fill: rgb(0,0,0); fill-rule: nonzero; opacity: 1;" vector-effect="non-scaling-stroke"  x="-750" y="-750" rx="210" ry="210" width="1500" height="1500" />
</g>
		<g transform="matrix(17.05 0 0 17.05 -0.45 -0.54)"  >
<path style="stroke: none; stroke-width: 1; stroke-dasharray: none; stroke-linecap: butt; stroke-dashoffset: 0; stroke-linejoin: miter; stroke-miterlimit: 4; fill: rgb(255,255,255); fill-rule: nonzero; opacity: 1;" vector-effect="non-scaling-stroke"  transform=" translate(-30.47, 17.5)" d="M 1.2 -24.51 L 1.2 -24.51 Q 1.2 -26.68 2.03 -28.59 Q 2.86 -30.49 4.28 -31.92 Q 5.71 -33.35 7.62 -34.18 Q 9.52 -35.01 11.69 -35.01 L 11.69 -35.01 L 27.76 -35.01 L 27.76 -28 L 11.69 -28 Q 10.96 -28 10.33 -27.73 Q 9.69 -27.47 9.22 -26.99 Q 8.74 -26.51 8.47 -25.88 Q 8.2 -25.24 8.2 -24.51 L 8.2 -24.51 Q 8.2 -23.78 8.47 -23.13 Q 8.74 -22.49 9.22 -22.01 Q 9.69 -21.53 10.33 -21.26 Q 10.96 -21 11.69 -21 L 11.69 -21 L 18.7 -21 Q 20.87 -21 22.79 -20.18 Q 24.71 -19.36 26.14 -17.93 Q 27.56 -16.5 28.38 -14.59 Q 29.2 -12.67 29.2 -10.5 L 29.2 -10.5 Q 29.2 -8.33 28.38 -6.42 Q 27.56 -4.52 26.14 -3.09 Q 24.71 -1.66 22.79 -0.83 Q 20.87 0 18.7 0 L 18.7 0 L 3.15 0 L 3.15 -7.01 L 18.7 -7.01 Q 19.43 -7.01 20.07 -7.28 Q 20.7 -7.54 21.18 -8.02 Q 21.66 -8.5 21.92 -9.13 Q 22.19 -9.77 22.19 -10.5 L 22.19 -10.5 Q 22.19 -11.23 21.92 -11.87 Q 21.66 -12.5 21.18 -12.98 Q 20.7 -13.45 20.07 -13.72 Q 19.43 -13.99 18.7 -13.99 L 18.7 -13.99 L 11.69 -13.99 Q 9.52 -13.99 7.62 -14.82 Q 5.71 -15.65 4.28 -17.08 Q 2.86 -18.51 2.03 -20.42 Q 1.2 -22.34 1.2 -24.51 Z M 31.74 -24.51 L 31.74 -24.51 Q 31.74 -26.68 32.57 -28.59 Q 33.4 -30.49 34.82 -31.92 Q 36.25 -33.35 38.16 -34.18 Q 40.06 -35.01 42.23 -35.01 L 42.23 -35.01 L 58.3 -35.01 L 58.3 -28 L 42.23 -28 Q 41.5 -28 40.87 -27.73 Q 40.23 -27.47 39.76 -26.99 Q 39.28 -26.51 39.01 -25.88 Q 38.74 -25.24 38.74 -24.51 L 38.74 -24.51 Q 38.74 -23.78 39.01 -23.13 Q 39.28 -22.49 39.76 -22.01 Q 40.23 -21.53 40.87 -21.26 Q 41.5 -21 42.23 -21 L 42.23 -21 L 49.24 -21 Q 51.41 -21 53.33 -20.18 Q 55.25 -19.36 56.67 -17.93 Q 58.1 -16.5 58.92 -14.59 Q 59.74 -12.67 59.74 -10.5 L 59.74 -10.5 Q 59.74 -8.33 58.92 -6.42 Q 58.1 -4.52 56.67 -3.09 Q 55.25 -1.66 53.33 -0.83 Q 51.41 0 49.24 0 L 49.24 0 L 33.69 0 L 33.69 -7.01 L 49.24 -7.01 Q 49.97 -7.01 50.61 -7.28 Q 51.24 -7.54 51.72 -8.02 Q 52.19 -8.5 52.46 -9.13 Q 52.73 -9.77 52.73 -10.5 L 52.73 -10.5 Q 52.73 -11.23 52.46 -11.87 Q 52.19 -12.5 51.72 -12.98 Q 51.24 -13.45 50.61 -13.72 Q 49.97 -13.99 49.24 -13.99 L 49.24 -13.99 L 42.23 -13.99 Q 40.06 -13.99 38.16 -14.82 Q 36.25 -15.65 34.82 -17.08 Q 33.4 -18.51 32.57 -20.42 Q 31.74 -22.34 31.74 -24.51 Z" stroke-linecap="round" />
</g>
		<g transform="matrix(2.52 0 0 2.52 -1.24 -0.98)" id="tight-bounds"  >
<rect style="stroke: none; stroke-width: 1; stroke-dasharray: none; stroke-linecap: butt; stroke-dashoffset: 0; stroke-linejoin: miter; stroke-miterlimit: 4; fill: none; fill-rule: nonzero; opacity: 1;" vector-effect="non-scaling-stroke"  x="-197.76" y="-118.26" rx="0" ry="0" width="395.52" height="236.52" />
</g>
</g>
</g>
<g transform="matrix(1.17 0 0 1.17 540 540)"  >
<g style=""   >
		<g transform="matrix(1 0 0 1 0 0)" id="387340000"  >
<rect style="stroke: none; stroke-width: 1; stroke-dasharray: none; stroke-linecap: butt; stroke-dashoffset: 0; stroke-linejoin: miter; stroke-miterlimit: 4; fill: rgb(255,255,255); fill-rule: nonzero; opacity: 1; visibility: hidden;" vector-effect="non-scaling-stroke"  x="-540" y="-540" rx="0" ry="0" width="1080" height="1080" />
</g>
		<g transform="matrix(1 0 0 1 -540 -540)"  >
<path style="stroke: none; stroke-width: 1; stroke-dasharray: none; stroke-linecap: butt; stroke-dashoffset: 0; stroke-linejoin: miter; stroke-miterlimit: 4; fill: rgb(255,255,255); fill-rule: nonzero; opacity: 1;" vector-effect="non-scaling-stroke"  transform=" translate(-16, -16)" d="M 24 6 L 8 6 C 5.2 6 3 8.2 3 11 L 3 21 C 3 23.8 5.2 26 8 26 L 24 26 C 26.8 26 29 23.8 29 21 L 29 11 C 29 8.2 26.8 6 24 6 z" stroke-linecap="round" />
</g>
		<g transform="matrix(1 0 0 1 -540 -540)"  >
<path style="stroke: none; stroke-width: 1; stroke-dasharray: none; stroke-linecap: butt; stroke-dashoffset: 0; stroke-linejoin: miter; stroke-miterlimit: 4; fill: rgb(255,255,255); fill-rule: nonzero; opacity: 1;" vector-effect="non-scaling-stroke"  transform=" translate(-16, -16)" d="M 24 6 L 8 6 C 5.2 6 3 8.2 3 11 L 3 21 C 3 23.8 5.2 26 8 26 L 24 26 C 26.8 26 29 23.8 29 21 L 29 11 C 29 8.2 26.8 6 24 6 z" stroke-linecap="round" />
</g>
		<g transform="matrix(1 0 0 1 -540 -540)"  >
<path style="stroke: none; stroke-width: 1; stroke-dasharray: none; stroke-linecap: butt; stroke-dashoffset: 0; stroke-linejoin: miter; stroke-miterlimit: 4; fill: rgb(255,255,255); fill-rule: nonzero; opacity: 1;" vector-effect="non-scaling-stroke"  transform=" translate(-16, -16)" d="M 24 6 L 8 6 C 5.2 6 3 8.2 3 11 L 3 21 C 3 23.8 5.2 26 8 26 L 24 26 C 26.8 26 29 23.8 29 21 L 29 11 C 29 8.2 26.8 6 24 6 z" stroke-linecap="round" />
</g>
		<g transform="matrix(10.7 0 0 10.18 -8.96 10.49)" id="bb3eea5f-a3b8-400d-9b5c-9ba065b334cd"  >
<rect style="stroke: rgb(0,0,0); stroke-width: 0; stroke-dasharray: none; stroke-linecap: butt; stroke-dashoffset: 0; stroke-linejoin: miter; stroke-miterlimit: 4; fill: rgb(255,255,255); fill-rule: nonzero; opacity: 1;" vector-effect="non-scaling-stroke"  x="-33.085" y="-33.085" rx="0" ry="0" width="66.17" height="66.17" />
</g>
		<g transform="matrix(33.75 0 0 33.75 0 0)"  >
<path style="stroke: none; stroke-width: 1; stroke-dasharray: none; stroke-linecap: butt; stroke-dashoffset: 0; stroke-linejoin: miter; stroke-miterlimit: 4; fill: rgb(0,0,0); fill-rule: evenodd; opacity: 1;" vector-effect="non-scaling-stroke"  transform=" translate(-16, -16)" d="M 16 32 C 7.163 32 0 24.837 0 16 C 0 7.163 7.163 0 16 0 C 24.837 0 32 7.163 32 16 C 32 24.837 24.837 32 16 32 z M 16.28 23.325 C 17.308 24.035999999999998 18.612000000000002 24.459 20.024 24.459 C 20.375 24.459 20.722 24.433 21.063000000000002 24.381999999999998 C 21.180000000000003 24.429999999999996 21.293000000000003 24.488999999999997 21.432000000000002 24.569 C 21.732000000000003 24.744999999999997 22.133000000000003 25.015 22.632 25.378999999999998 C 23.041 25.677999999999997 23.62 25.389 23.62 24.886 L 23.62 23.425 C 23.830000000000002 23.289 24.028000000000002 23.142 24.215 22.983 C 25.345 22.025 26 20.715 26 19.31 C 26 18.384999999999998 25.72 17.52 25.228 16.773 C 25.072893429217196 17.30345791548827 24.862751095300712 17.81624542887299 24.601000000000003 18.303 C 24.705000000000002 18.626 24.76 18.963 24.76 19.310000000000002 C 24.76 20.344 24.272000000000002 21.32 23.408 22.052000000000003 C 23.18508378346148 22.2403283729722 22.94503791760341 22.40738958226533 22.691000000000003 22.551000000000002 C 22.49941318090486 22.65922089792419 22.380670410104027 22.861961770256155 22.380000000000003 23.082 L 22.380000000000003 23.706 C 21.787000000000003 23.326 21.380000000000003 23.147 21.070000000000004 23.147 C 21.03514343150085 23.147103955924976 21.00035623275489 23.150114386585685 20.966000000000005 23.156 C 20.097189611719052 23.301292796411513 19.206520216291004 23.243101483105296 18.364000000000004 22.985999999999997 C 17.681615010075102 23.163220961712383 16.98432015203604 23.2770376932214 16.281000000000006 23.326 z M 8.814 20.403 C 9.143751643893435 20.682012159827817 9.492601697939916 20.93763504425843 9.858 21.168 L 9.858 23.66 C 9.858 24.29 10.583 24.65 11.094000000000001 24.276 C 12.504000000000001 23.246 13.484000000000002 22.664 13.729000000000001 22.606 C 14.295000000000002 22.696 14.873000000000001 22.741000000000003 15.457 22.741000000000003 C 20.657 22.741000000000003 24.915 19.134000000000004 24.915 14.621000000000004 C 24.915 10.107000000000003 20.656 6.5000000000000036 15.456999999999999 6.5000000000000036 C 10.258 6.5000000000000036 6 10.107 6 14.62 C 6 16.83 7.03 18.891 8.814 20.403 z M 13.763 21.069 C 13.26 21.069 12.525 21.424 11.408999999999999 22.173 L 11.408999999999999 20.735999999999997 C 11.407996976602574 20.460601873075483 11.259042983007744 20.20699815064736 11.018999999999998 20.071999999999996 C 10.595254795141463 19.8321964797387 10.194847230763099 19.553317298194237 9.822999999999997 19.238999999999997 C 8.37 18.01 7.55 16.366 7.55 14.62 C 7.55 11.01 11.065999999999999 8.032 15.457 8.032 C 19.849 8.032 23.364 11.01 23.364 14.620000000000001 C 23.364 18.230000000000004 19.849 21.209000000000003 15.457 21.209000000000003 C 14.927000000000001 21.209000000000003 14.404 21.165000000000003 13.893 21.079000000000004 C 13.850019490923849 21.07206289772918 13.806535824610794 21.06871800032048 13.763 21.069000000000003 z M 11.426 16.153 C 12.111 16.153 12.666 15.602999999999998 12.666 14.927 C 12.666 14.25 12.111 13.701 11.426 13.701 C 10.741 13.701 10.186 14.25 10.186 14.927 C 10.186 15.604 10.741 16.153 11.426 16.153 z M 15.457 16.153 C 16.142 16.153 16.697 15.602999999999998 16.697 14.927 C 16.697 14.25 16.142 13.701 15.456999999999999 13.701 C 14.771999999999998 13.701 14.216999999999999 14.25 14.216999999999999 14.927 C 14.216999999999999 15.604 14.771999999999998 16.153 15.456999999999999 16.153 z M 19.488 16.153 C 20.173 16.153 20.727999999999998 15.602999999999998 20.727999999999998 14.927 C 20.727999999999998 14.25 20.173 13.701 19.488 13.701 C 18.803 13.701 18.248 14.25 18.248 14.927 C 18.248 15.604 18.803 16.153 19.488 16.153 z" stroke-linecap="round" />
</g>
		<g transform="matrix(1 0 0 1 -540 -540)"  >
<path style="stroke: none; stroke-width: 1; stroke-dasharray: none; stroke-linecap: butt; stroke-dashoffset: 0; stroke-linejoin: miter; stroke-miterlimit: 4; fill: rgb(255,255,255); fill-rule: nonzero; opacity: 1;" vector-effect="non-scaling-stroke"  transform=" translate(-16, -16)" d="M 24 6 L 8 6 C 5.2 6 3 8.2 3 11 L 3 21 C 3 23.8 5.2 26 8 26 L 24 26 C 26.8 26 29 23.8 29 21 L 29 11 C 29 8.2 26.8 6 24 6 z" stroke-linecap="round" />
</g>
</g>
</g>
</svg>